<mxGraphModel dx="1304" dy="723" grid="1" gridSize="10" guides="1" tooltips="1" connect="1" arrows="1" fold="1" page="1" pageScale="1" pageWidth="850" pageHeight="1100" math="0" shadow="0" extFonts="Permanent Marker^https://fonts.googleapis.com/css?family=Permanent+Marker">
  <root>
    <mxCell id="0" />
    <mxCell id="1" parent="0" />
    <mxCell id="C-vyLk0tnHw3VtMMgP7b-1" value="" style="edgeStyle=entityRelationEdgeStyle;endArrow=ERzeroToMany;startArrow=ERone;endFill=1;startFill=0;" parent="1" source="C-vyLk0tnHw3VtMMgP7b-24" target="C-vyLk0tnHw3VtMMgP7b-6" edge="1">
      <mxGeometry width="100" height="100" relative="1" as="geometry">
        <mxPoint x="340" y="720" as="sourcePoint" />
        <mxPoint x="440" y="620" as="targetPoint" />
      </mxGeometry>
    </mxCell>
    <mxCell id="C-vyLk0tnHw3VtMMgP7b-2" value="Note" style="shape=table;startSize=30;container=1;collapsible=1;childLayout=tableLayout;fixedRows=1;rowLines=0;fontStyle=1;align=center;resizeLast=1;" parent="1" vertex="1">
      <mxGeometry x="450" y="120" width="320" height="200" as="geometry" />
    </mxCell>
    <mxCell id="C-vyLk0tnHw3VtMMgP7b-3" value="" style="shape=partialRectangle;collapsible=0;dropTarget=0;pointerEvents=0;fillColor=none;points=[[0,0.5],[1,0.5]];portConstraint=eastwest;top=0;left=0;right=0;bottom=1;" parent="C-vyLk0tnHw3VtMMgP7b-2" vertex="1">
      <mxGeometry y="30" width="320" height="30" as="geometry" />
    </mxCell>
    <mxCell id="C-vyLk0tnHw3VtMMgP7b-4" value="PK" style="shape=partialRectangle;overflow=hidden;connectable=0;fillColor=none;top=0;left=0;bottom=0;right=0;fontStyle=1;" parent="C-vyLk0tnHw3VtMMgP7b-3" vertex="1">
      <mxGeometry width="30" height="30" as="geometry">
        <mxRectangle width="30" height="30" as="alternateBounds" />
      </mxGeometry>
    </mxCell>
    <mxCell id="C-vyLk0tnHw3VtMMgP7b-5" value="id bigint" style="shape=partialRectangle;overflow=hidden;connectable=0;fillColor=none;top=0;left=0;bottom=0;right=0;align=left;spacingLeft=6;fontStyle=5;" parent="C-vyLk0tnHw3VtMMgP7b-3" vertex="1">
      <mxGeometry x="30" width="290" height="30" as="geometry">
        <mxRectangle width="290" height="30" as="alternateBounds" />
      </mxGeometry>
    </mxCell>
    <mxCell id="C-vyLk0tnHw3VtMMgP7b-6" value="" style="shape=partialRectangle;collapsible=0;dropTarget=0;pointerEvents=0;fillColor=none;points=[[0,0.5],[1,0.5]];portConstraint=eastwest;top=0;left=0;right=0;bottom=0;" parent="C-vyLk0tnHw3VtMMgP7b-2" vertex="1">
      <mxGeometry y="60" width="320" height="30" as="geometry" />
    </mxCell>
    <mxCell id="C-vyLk0tnHw3VtMMgP7b-7" value="FK1" style="shape=partialRectangle;overflow=hidden;connectable=0;fillColor=none;top=0;left=0;bottom=0;right=0;" parent="C-vyLk0tnHw3VtMMgP7b-6" vertex="1">
      <mxGeometry width="30" height="30" as="geometry">
        <mxRectangle width="30" height="30" as="alternateBounds" />
      </mxGeometry>
    </mxCell>
    <mxCell id="C-vyLk0tnHw3VtMMgP7b-8" value="authorid Bigint NOT NULL ON DELETE CASCADE" style="shape=partialRectangle;overflow=hidden;connectable=0;fillColor=none;top=0;left=0;bottom=0;right=0;align=left;spacingLeft=6;" parent="C-vyLk0tnHw3VtMMgP7b-6" vertex="1">
      <mxGeometry x="30" width="290" height="30" as="geometry">
        <mxRectangle width="290" height="30" as="alternateBounds" />
      </mxGeometry>
    </mxCell>
    <mxCell id="C-vyLk0tnHw3VtMMgP7b-9" value="" style="shape=partialRectangle;collapsible=0;dropTarget=0;pointerEvents=0;fillColor=none;points=[[0,0.5],[1,0.5]];portConstraint=eastwest;top=0;left=0;right=0;bottom=0;" parent="C-vyLk0tnHw3VtMMgP7b-2" vertex="1">
      <mxGeometry y="90" width="320" height="30" as="geometry" />
    </mxCell>
    <mxCell id="C-vyLk0tnHw3VtMMgP7b-10" value="" style="shape=partialRectangle;overflow=hidden;connectable=0;fillColor=none;top=0;left=0;bottom=0;right=0;" parent="C-vyLk0tnHw3VtMMgP7b-9" vertex="1">
      <mxGeometry width="30" height="30" as="geometry">
        <mxRectangle width="30" height="30" as="alternateBounds" />
      </mxGeometry>
    </mxCell>
    <mxCell id="C-vyLk0tnHw3VtMMgP7b-11" value="title varchar NOT NULL" style="shape=partialRectangle;overflow=hidden;connectable=0;fillColor=none;top=0;left=0;bottom=0;right=0;align=left;spacingLeft=6;" parent="C-vyLk0tnHw3VtMMgP7b-9" vertex="1">
      <mxGeometry x="30" width="290" height="30" as="geometry">
        <mxRectangle width="290" height="30" as="alternateBounds" />
      </mxGeometry>
    </mxCell>
    <mxCell id="C-vyLk0tnHw3VtMMgP7b-23" value="User" style="shape=table;startSize=30;container=1;collapsible=1;childLayout=tableLayout;fixedRows=1;rowLines=0;fontStyle=1;align=center;resizeLast=1;" parent="1" vertex="1">
      <mxGeometry x="120" y="120" width="250" height="120" as="geometry" />
    </mxCell>
    <mxCell id="C-vyLk0tnHw3VtMMgP7b-24" value="" style="shape=partialRectangle;collapsible=0;dropTarget=0;pointerEvents=0;fillColor=none;points=[[0,0.5],[1,0.5]];portConstraint=eastwest;top=0;left=0;right=0;bottom=1;" parent="C-vyLk0tnHw3VtMMgP7b-23" vertex="1">
      <mxGeometry y="30" width="250" height="30" as="geometry" />
    </mxCell>
    <mxCell id="C-vyLk0tnHw3VtMMgP7b-25" value="PK" style="shape=partialRectangle;overflow=hidden;connectable=0;fillColor=none;top=0;left=0;bottom=0;right=0;fontStyle=1;" parent="C-vyLk0tnHw3VtMMgP7b-24" vertex="1">
      <mxGeometry width="30" height="30" as="geometry">
        <mxRectangle width="30" height="30" as="alternateBounds" />
      </mxGeometry>
    </mxCell>
    <mxCell id="C-vyLk0tnHw3VtMMgP7b-26" value="id bigint" style="shape=partialRectangle;overflow=hidden;connectable=0;fillColor=none;top=0;left=0;bottom=0;right=0;align=left;spacingLeft=6;fontStyle=5;" parent="C-vyLk0tnHw3VtMMgP7b-24" vertex="1">
      <mxGeometry x="30" width="220" height="30" as="geometry">
        <mxRectangle width="220" height="30" as="alternateBounds" />
      </mxGeometry>
    </mxCell>
    <mxCell id="C-vyLk0tnHw3VtMMgP7b-27" value="" style="shape=partialRectangle;collapsible=0;dropTarget=0;pointerEvents=0;fillColor=none;points=[[0,0.5],[1,0.5]];portConstraint=eastwest;top=0;left=0;right=0;bottom=0;" parent="C-vyLk0tnHw3VtMMgP7b-23" vertex="1">
      <mxGeometry y="60" width="250" height="30" as="geometry" />
    </mxCell>
    <mxCell id="C-vyLk0tnHw3VtMMgP7b-28" value="" style="shape=partialRectangle;overflow=hidden;connectable=0;fillColor=none;top=0;left=0;bottom=0;right=0;" parent="C-vyLk0tnHw3VtMMgP7b-27" vertex="1">
      <mxGeometry width="30" height="30" as="geometry">
        <mxRectangle width="30" height="30" as="alternateBounds" />
      </mxGeometry>
    </mxCell>
    <mxCell id="C-vyLk0tnHw3VtMMgP7b-29" value="name varchar not null" style="shape=partialRectangle;overflow=hidden;connectable=0;fillColor=none;top=0;left=0;bottom=0;right=0;align=left;spacingLeft=6;" parent="C-vyLk0tnHw3VtMMgP7b-27" vertex="1">
      <mxGeometry x="30" width="220" height="30" as="geometry">
        <mxRectangle width="220" height="30" as="alternateBounds" />
      </mxGeometry>
    </mxCell>
    <mxCell id="h_WqzlO0NyU0Y5QP8qmW-1" value="password varchar not null" style="shape=partialRectangle;overflow=hidden;connectable=0;fillColor=none;top=0;left=0;bottom=0;right=0;align=left;spacingLeft=6;" parent="1" vertex="1">
      <mxGeometry x="150" y="210" width="220" height="30" as="geometry">
        <mxRectangle width="220" height="30" as="alternateBounds" />
      </mxGeometry>
    </mxCell>
    <mxCell id="h_WqzlO0NyU0Y5QP8qmW-3" value="" style="endArrow=none;html=1;rounded=0;" parent="1" edge="1">
      <mxGeometry width="50" height="50" relative="1" as="geometry">
        <mxPoint x="150" y="240" as="sourcePoint" />
        <mxPoint x="150" y="210" as="targetPoint" />
      </mxGeometry>
    </mxCell>
    <mxCell id="h_WqzlO0NyU0Y5QP8qmW-4" value="content varchar NOT NULL" style="shape=partialRectangle;overflow=hidden;connectable=0;fillColor=none;top=0;left=0;bottom=0;right=0;align=left;spacingLeft=6;" parent="1" vertex="1">
      <mxGeometry x="480" y="240" width="220" height="30" as="geometry">
        <mxRectangle width="220" height="30" as="alternateBounds" />
      </mxGeometry>
    </mxCell>
    <mxCell id="h_WqzlO0NyU0Y5QP8qmW-5" value="hidden boolean NOT NULL" style="shape=partialRectangle;overflow=hidden;connectable=0;fillColor=none;top=0;left=0;bottom=0;right=0;align=left;spacingLeft=6;" parent="1" vertex="1">
      <mxGeometry x="480" y="270" width="220" height="30" as="geometry">
        <mxRectangle width="220" height="30" as="alternateBounds" />
      </mxGeometry>
    </mxCell>
    <mxCell id="h_WqzlO0NyU0Y5QP8qmW-6" value="" style="endArrow=none;html=1;rounded=0;" parent="1" edge="1">
      <mxGeometry width="50" height="50" relative="1" as="geometry">
        <mxPoint x="480" y="320" as="sourcePoint" />
        <mxPoint x="480" y="240" as="targetPoint" />
      </mxGeometry>
    </mxCell>
    <mxCell id="4" value="All ids are implemented as sequences in the db" style="shape=note;size=20;whiteSpace=wrap;html=1;" parent="1" vertex="1">
      <mxGeometry x="150" y="270" width="100" height="100" as="geometry" />
    </mxCell>
  </root>
</mxGraphModel>